<?xml version="1.0" encoding="utf-8"?>
<!-- Generator: Adobe Illustrator 21.0.2, SVG Export Plug-In . SVG Version: 6.00 Build 0)  -->
<svg version="1.1" id="Layer_1" xmlns="http://www.w3.org/2000/svg" xmlns:xlink="http://www.w3.org/1999/xlink" x="0px" y="0px"
	 viewBox="0 0 149.2 172.2" style="enable-background:new 0 0 149.2 172.2;" xml:space="preserve">
<style type="text/css">
	.st0{fill:#030303;}
	.st1{fill:#E50523;}
	.st2{fill:#068967;}
	.st3{fill:#C8057F;}
	.st4{fill:#ABC805;}
	.st5{fill:#05ABEA;}
	.st6{fill:#F4AB05;}
</style>
<g>
	<path class="st0" d="M105.3,95.6c0,4.9-0.1,9.7,0,14.6c0.1,1.9-0.6,2.5-2.5,2.4c-4.6-0.1-9.2-0.1-13.8,0c-2.2,0.1-2.9-0.5-2.9-2.8
		c0.1-8.5,0.1-17,0-25.4c-0.1-4.5-1.3-8.8-5-11.8c-4.8-4-12.1-4-17.3-0.1c-4.7,3.4-6.4,9.8-4.2,15.5c2.2,5.9,7.8,9.2,14.4,8.5
		c1.7-0.2,3.4-0.5,5-0.9c1.6-0.5,1.9,0.2,1.8,1.5c-0.1,3.8-0.2,7.6,0,11.4c0.1,2-0.8,3-2.4,3.6c-8.3,3.3-16.2,2.5-23.9-1.8
		C42,103.1,37.3,89.1,40.5,75.6C43.8,61.8,56,52.6,70,52.3c10.6-0.2,20,2.3,27.4,10.2c5.1,5.3,7.6,11.7,7.8,19
		C105.3,86.2,105.3,90.9,105.3,95.6z"/>
	<path class="st1" d="M15.5,39.8c0.4,0.3,0.8,0.5,1.2,0.8c4.9,3.7,9.7,7.5,14.6,11.2c1,0.8,1.1,1.4,0.4,2.5
		c-1.9,2.6-3.6,5.4-4.9,8.4c-0.4,1-1,1.1-1.9,0.7c-5.7-2.4-11.5-4.8-17.2-7.2c-0.8-0.3-1.5-0.8-1-1.8c2.2-4.8,4.8-9.5,8-13.8
		C14.9,40.2,15.3,40,15.5,39.8z"/>
	<path class="st2" d="M133.6,39.8c0.7,0.1,0.9,0.6,1.2,1.1c3,4.1,5.5,8.4,7.6,13c0.5,1.2,0.3,1.8-0.9,2.2c-5.7,2.3-11.3,4.7-16.9,7
		c-1.2,0.5-1.8,0.2-2.3-0.9c-1.3-2.8-2.7-5.7-4.7-8.2c-0.7-0.9-0.7-1.5,0.2-2.2c5-3.8,10-7.6,15-11.5
		C133.1,40.1,133.3,39.9,133.6,39.8z"/>
	<path class="st3" d="M142.6,111.6c-0.1,0.3-0.2,0.6-0.4,0.9c-2.1,4.5-4.5,8.8-7.4,12.9c-0.8,1.1-1.5,1.1-2.4,0.3
		c-4.8-3.8-9.7-7.5-14.6-11.2c-0.9-0.7-1-1.3-0.4-2.2c1.9-2.7,3.5-5.5,4.9-8.4c0.4-0.9,1-1.2,1.9-0.8c5.7,2.4,11.5,4.8,17.2,7.2
		C142,110.4,142.7,110.7,142.6,111.6z"/>
	<path class="st4" d="M0.7,83.2C0.4,80.8,1,78.4,1,76c0-1.4,0.6-2,2-1.8c6.1,0.8,12.1,1.6,18.2,2.3c1.3,0.2,1.8,0.9,1.5,2.3
		c-0.5,2.9-0.5,5.9,0,8.9c0.3,1.5-0.4,2-1.9,2.2C15.2,90.5,9.6,91.3,4,92.1c-1.8,0.2-3.1,0.1-3.1-2.4C1,87.5,0.5,85.4,0.7,83.2z"/>
	<path class="st5" d="M32.2,113.1c0,0.9-0.6,1.2-1.1,1.5c-4.7,3.6-9.5,7.2-14.1,10.9c-1.2,1-1.9,0.8-2.8-0.4
		c-2.8-4-5.2-8.2-7.2-12.6c-0.7-1.4-0.1-2,1.1-2.5c5.5-2.3,11-4.5,16.5-6.8c1.1-0.4,1.9-0.6,2.4,0.7c1.4,2.9,2.9,5.8,4.8,8.4
		C32,112.6,32.1,112.9,32.2,113.1z"/>
	<path class="st6" d="M148.6,83.3c-0.1,2.3-0.3,4.4-0.4,6.6c-0.1,2-0.9,2.6-2.9,2.3c-4.4-0.7-8.9-1.2-13.4-1.9
		c-5.5-0.9-5.4-0.9-5.2-6.4c0.1-1.7-0.1-3.4-0.2-5.1c-0.1-1.5,0.5-2.1,2-2.3c5.6-0.7,11.2-1.4,16.9-2.2c1.8-0.3,2.7,0.3,2.8,2.1
		C148.4,78.7,148.5,81,148.6,83.3z"/>
</g>
</svg>
